<svg xmlns="http://www.w3.org/2000/svg" xmlns:xlink="http://www.w3.org/1999/xlink" fill="none" version="1.1" width="19.065027236938477" height="16" viewBox="0 0 19.065027236938477 16"><defs><clipPath id="master_svg0_0_2534"><rect x="0" y="0" width="19.065027236938477" height="16" rx="0"/></clipPath></defs><g clip-path="url(#master_svg0_0_2534)"><g><path d="M0,0C0,0,0,3.19859,0,3.19859C0,3.19859,0,6.39719,0,6.39719C0,6.39719,0,9.60281,0,9.60281C0,9.60281,3.19859,9.60281,3.19859,9.60281C3.19859,9.60281,3.19859,6.39719,3.19859,6.39719C3.19859,6.39719,3.19859,3.19859,3.19859,3.19859C3.19859,3.19859,3.19859,0,3.19859,0C3.19859,0,0,0,0,0C0,0,0,0,0,0Z" fill="#424242" fill-opacity="1"/></g><g><path d="M15.86624813079834,6.39718770980835C15.86624813079834,6.39718770980835,15.86624813079834,9.60280770980835,15.86624813079834,9.60280770980835C15.86624813079834,9.60280770980835,15.86624813079834,12.801407709808348,15.86624813079834,12.801407709808348C15.86624813079834,12.801407709808348,15.86624813079834,15.99999770980835,15.86624813079834,15.99999770980835C15.86624813079834,15.99999770980835,19.06485813079834,15.99999770980835,19.06485813079834,15.99999770980835C19.06485813079834,15.99999770980835,19.06485813079834,12.801407709808348,19.06485813079834,12.801407709808348C19.06485813079834,12.801407709808348,19.06485813079834,9.60280770980835,19.06485813079834,9.60280770980835C19.06485813079834,9.60280770980835,19.06485813079834,6.39718770980835,19.06485813079834,6.39718770980835C19.06485813079834,6.39718770980835,15.86624813079834,6.39718770980835,15.86624813079834,6.39718770980835C15.86624813079834,6.39718770980835,15.86624813079834,6.39718770980835,15.86624813079834,6.39718770980835Z" fill="#424242" fill-opacity="1"/></g><g><path d="M9.462583541870117,0C9.462583541870117,0,9.462583541870117,3.19859,9.462583541870117,3.19859C9.462583541870117,3.19859,9.462583541870117,6.26362,9.462583541870117,6.26362C9.462583541870117,6.26362,12.661173541870117,9.46221,12.661173541870117,9.46221C12.661173541870117,9.46221,12.661173541870117,6.39719,12.661173541870117,6.39719C12.661173541870117,6.39719,12.661173541870117,3.19859,12.661173541870117,3.19859C12.661173541870117,3.19859,9.462583541870117,0,9.462583541870117,0C9.462583541870117,0,9.462583541870117,0,9.462583541870117,0Z" fill="#424242" fill-opacity="1"/></g><g><path d="M6.404125213623047,6.537785530090332C6.404125213623047,6.537785530090332,6.404125213623047,9.602815530090332,6.404125213623047,9.602815530090332C6.404125213623047,9.602815530090332,6.404125213623047,12.801405530090332,6.404125213623047,12.801405530090332C6.404125213623047,12.801405530090332,9.602725213623046,15.999995530090333,9.602725213623046,15.999995530090333C9.602725213623046,15.999995530090333,9.602725213623046,12.801405530090332,9.602725213623046,12.801405530090332C9.602725213623046,12.801405530090332,9.602725213623046,9.736375530090331,9.602725213623046,9.736375530090331C9.602725213623046,9.736375530090331,6.404125213623047,6.537785530090332,6.404125213623047,6.537785530090332C6.404125213623047,6.537785530090332,6.404125213623047,6.537785530090332,6.404125213623047,6.537785530090332Z" fill="#424242" fill-opacity="1"/></g><g><path d="M9.462583541870117,0C9.462583541870117,0,12.661173541870117,0,12.661173541870117,0C12.661173541870117,0,19.065393541870115,6.39719,19.065393541870115,6.39719C19.065393541870115,6.39719,15.866803541870116,6.39719,15.866803541870116,6.39719C15.866803541870116,6.39719,9.462583541870117,0,9.462583541870117,0C9.462583541870117,0,9.462583541870117,0,9.462583541870117,0Z" fill="#000000" fill-opacity="1"/></g><g><path d="M0,9.602726936340332C0,9.602726936340332,3.19859,9.602726936340332,3.19859,9.602726936340332C3.19859,9.602726936340332,9.60281,15.999916936340332,9.60281,15.999916936340332C9.60281,15.999916936340332,6.40422,15.999916936340332,6.40422,15.999916936340332C6.40422,15.999916936340332,0,9.602726936340332,0,9.602726936340332C0,9.602726936340332,0,9.602726936340332,0,9.602726936340332Z" fill="#000000" fill-opacity="1"/></g><g><path d="M12.660804093322755,3.19859C12.660804093322755,3.19859,12.660804093322755,6.39719,12.660804093322755,6.39719C12.660804093322755,6.39719,12.660804093322755,9.42004,12.660804093322755,9.42004C12.660804093322755,9.42004,3.198594093322754,0,3.198594093322754,0C3.198594093322754,0,3.198594093322754,3.19859,3.198594093322754,3.19859C3.198594093322754,3.19859,3.198594093322754,3.39543,3.198594093322754,3.39543C3.198594093322754,3.39543,3.198594093322754,6.39719,3.198594093322754,6.39719C3.198594093322754,6.39719,3.198594093322754,9.60281,3.198594093322754,9.60281C3.198594093322754,9.60281,6.404214093322754,12.8014,6.404214093322754,12.8014C6.404214093322754,12.8014,6.404214093322754,9.60281,6.404214093322754,9.60281C6.404214093322754,9.60281,6.404214093322754,6.57996,6.404214093322754,6.57996C6.404214093322754,6.57996,15.866394093322754,16,15.866394093322754,16C15.866394093322754,16,15.866394093322754,12.8014,15.866394093322754,12.8014C15.866394093322754,12.8014,15.866394093322754,12.6046,15.866394093322754,12.6046C15.866394093322754,12.6046,15.866394093322754,9.60281,15.866394093322754,9.60281C15.866394093322754,9.60281,15.866394093322754,6.39719,15.866394093322754,6.39719C15.866394093322754,6.39719,12.660804093322755,3.19859,12.660804093322755,3.19859C12.660804093322755,3.19859,12.660804093322755,3.19859,12.660804093322755,3.19859Z" fill="#3CC68A" fill-opacity="1"/></g></g></svg>